<svg width="48" height="48" viewBox="0 0 48 48" fill="none" xmlns="http://www.w3.org/2000/svg">
<path d="M40 34.9069L39.6235 34.5779C38.5556 33.635 37.6207 32.5541 36.844 31.3642C35.9951 29.7221 35.4868 27.9282 35.349 26.0884V20.6701C35.3563 17.7806 34.2981 14.9879 32.3732 12.8168C30.4482 10.6456 27.7891 9.24537 24.8953 8.87918V7.46427C24.8953 7.07592 24.7395 6.70348 24.4623 6.42887C24.1851 6.15427 23.809 6 23.4169 6C23.0249 6 22.6488 6.15427 22.3716 6.42887C22.0943 6.70348 21.9386 7.07592 21.9386 7.46427V8.90111C19.0708 9.2937 16.4437 10.7024 14.5441 12.8663C12.6444 15.0301 11.6009 17.8026 11.6067 20.6701V26.0884C11.4689 27.9282 10.9606 29.7221 10.1117 31.3642C9.34863 32.5513 8.42874 33.6321 7.37651 34.5779L7 34.9069V38H40V34.9069Z" fill="#A2A2A2"/>
<path d="M21 40C21.1002 40.5544 21.4592 41.0623 22.0106 41.4299C22.562 41.7975 23.2687 42 24 42C24.7313 42 25.438 41.7975 25.9894 41.4299C26.5408 41.0623 26.8998 40.5544 27 40H21Z" fill="#A2A2A2"/>
</svg>
