<svg width="48" height="48" viewBox="0 0 48 48" fill="none" xmlns="http://www.w3.org/2000/svg">
<path fill-rule="evenodd" clip-rule="evenodd" d="M9.45459 5.45459C8.39372 5.45459 7.37631 5.87602 6.62616 6.62616C5.87602 7.37631 5.45459 8.39372 5.45459 9.45459V39.4546C5.45459 40.5155 5.87602 41.5329 6.62616 42.283C7.37631 43.0332 8.39372 43.4546 9.45459 43.4546H15.4546V39.4546H9.45459V9.45459H33.4546V17.4546H37.4546V9.45459C37.4546 8.39372 37.0332 7.37631 36.283 6.62616C35.5329 5.87602 34.5155 5.45459 33.4546 5.45459H9.45459ZM15.4546 15.4546C14.9242 15.4546 14.4154 15.6653 14.0404 16.0404C13.6653 16.4154 13.4546 16.9242 13.4546 17.4546C13.4546 17.985 13.6653 18.4937 14.0404 18.8688C14.4154 19.2439 14.9242 19.4546 15.4546 19.4546H23.4546C23.985 19.4546 24.4937 19.2439 24.8688 18.8688C25.2439 18.4937 25.4546 17.985 25.4546 17.4546C25.4546 16.9242 25.2439 16.4154 24.8688 16.0404C24.4937 15.6653 23.985 15.4546 23.4546 15.4546H15.4546ZM31.3526 23.0766C32.481 21.9666 34.0023 21.3476 35.5852 21.3542C37.168 21.3608 38.6841 21.9926 39.8032 23.112C40.9223 24.2314 41.5537 25.7476 41.56 27.3304C41.5662 28.9132 40.9468 30.4344 39.8366 31.5626L28.5246 42.8766C28.1496 43.2517 27.641 43.4625 27.1106 43.4626H21.4526C20.9222 43.4626 20.4134 43.2519 20.0384 42.8768C19.6633 42.5017 19.4526 41.993 19.4526 41.4626V35.8046C19.4527 35.2742 19.6635 34.7656 20.0386 34.3906L31.3526 23.0766ZM37.0086 25.9046C36.6335 25.5296 36.1249 25.319 35.5946 25.319C35.0643 25.319 34.5556 25.5296 34.1806 25.9046L37.0086 28.7346C37.1945 28.5488 37.3421 28.3283 37.4427 28.0855C37.5434 27.8427 37.5952 27.5824 37.5952 27.3196C37.5952 27.0568 37.5434 26.7965 37.4427 26.5537C37.3421 26.3109 37.1945 26.0903 37.0086 25.9046ZM34.1806 31.5626L31.3526 28.7346L23.4526 36.6346V39.4626H26.2806L34.1806 31.5626Z" fill="#A2A2A2"/>
</svg>
