<svg width="42" height="42" viewBox="0 0 42 42" fill="none" xmlns="http://www.w3.org/2000/svg">
<path d="M21 0C26.5695 0 31.911 2.21249 35.8492 6.15076C39.7875 10.089 42 15.4305 42 21C42 26.5695 39.7875 31.911 35.8492 35.8492C31.911 39.7875 26.5695 42 21 42C15.4305 42 10.089 39.7875 6.15076 35.8492C2.21249 31.911 0 26.5695 0 21C0 15.4305 2.21249 10.089 6.15076 6.15076C10.089 2.21249 15.4305 0 21 0ZM3.9375 21C3.9375 25.5253 5.73515 29.8652 8.93499 33.065C12.1348 36.2648 16.4747 38.0625 21 38.0625C25.5253 38.0625 29.8652 36.2648 33.065 33.065C36.2648 29.8652 38.0625 25.5253 38.0625 21C38.0625 16.4747 36.2648 12.1348 33.065 8.93499C29.8652 5.73515 25.5253 3.9375 21 3.9375C16.4747 3.9375 12.1348 5.73515 8.93499 8.93499C5.73515 12.1348 3.9375 16.4747 3.9375 21ZM16.7449 13.7209L27.9379 20.4382C28.0346 20.4967 28.1146 20.5791 28.1701 20.6775C28.2257 20.7759 28.2549 20.887 28.2549 21C28.2549 21.113 28.2257 21.2241 28.1701 21.3225C28.1146 21.4209 28.0346 21.5033 27.9379 21.5617L16.7449 28.2791C16.6453 28.3391 16.5317 28.3715 16.4155 28.3732C16.2993 28.3748 16.1848 28.3456 16.0836 28.2884C15.9824 28.2313 15.8982 28.1483 15.8396 28.048C15.781 27.9477 15.7501 27.8336 15.75 27.7174V14.2852C15.7496 14.1688 15.7802 14.0544 15.8386 13.9537C15.897 13.853 15.9812 13.7697 16.0824 13.7122C16.1837 13.6548 16.2984 13.6253 16.4148 13.6268C16.5312 13.6283 16.6452 13.6608 16.7449 13.7209Z" fill="#A2A2A2"/>
</svg>
