<svg width="48" height="48" viewBox="0 0 48 48" fill="none" xmlns="http://www.w3.org/2000/svg">
<path d="M24.3357 0.00222984C10.8387 -0.180061 -0.180069 10.8381 0.00222995 24.3346C0.182222 37.2783 10.7221 47.8177 23.6665 47.9977C37.1659 48.1823 48.1823 37.1641 47.9977 23.6677C47.82 10.7216 37.2801 0.182213 24.3357 0.00222984ZM38.922 37.7583C38.876 37.808 38.8197 37.847 38.757 37.8725C38.6943 37.898 38.6267 37.9094 38.5591 37.9058C38.4915 37.9023 38.4255 37.884 38.3658 37.8521C38.3061 37.8202 38.2541 37.7756 38.2135 37.7214C37.1815 36.3712 35.9177 35.2152 34.481 34.3075C31.5435 32.4223 27.8213 31.3839 24.0011 31.3839C20.1809 31.3839 16.4588 32.4223 13.5212 34.3075C12.0846 35.2148 10.8208 36.3704 9.7887 37.7202C9.74816 37.7744 9.69618 37.819 9.63646 37.8509C9.57674 37.8828 9.51074 37.9012 9.44314 37.9047C9.37553 37.9082 9.30798 37.8968 9.24527 37.8713C9.18256 37.8458 9.12623 37.8068 9.08027 37.7571C5.69467 34.1025 3.77686 29.3271 3.69437 24.3461C3.5063 13.1191 12.7193 3.72188 23.9515 3.69419C35.1837 3.6665 44.3079 12.7868 44.3079 24C44.3117 29.1011 42.388 34.0154 38.922 37.7583Z" fill="white"/>
<path d="M24.0007 11.0781C21.7255 11.0781 19.6683 11.9307 18.2064 13.4802C16.7445 15.0297 16.0142 17.1722 16.1792 19.4716C16.5138 24 20.0225 27.6919 24.0007 27.6919C27.979 27.6919 31.4808 24 31.8223 19.4727C31.9931 17.1952 31.2685 15.0724 29.7824 13.4941C28.3148 11.9365 26.261 11.0781 24.0007 11.0781Z" fill="white"/>
</svg>
