<svg width="48" height="48" viewBox="0 0 48 48" fill="none" xmlns="http://www.w3.org/2000/svg">
<g clip-path="url(#clip0_518_5601)">
<g clip-path="url(#clip1_518_5601)">
<g clip-path="url(#clip2_518_5601)">
<path d="M38 20H40C41.1046 20 42 20.8954 42 22V42C42 43.1046 41.1046 44 40 44H8C6.89544 44 6 43.1046 6 42V22C6 20.8954 6.89544 20 8 20H10V18C10 10.268 16.268 4 24 4C31.732 4 38 10.268 38 18V20ZM10 24V40H38V24H10ZM22 28H26V36H22V28ZM34 20V18C34 12.4772 29.5228 8 24 8C18.4772 8 14 12.4772 14 18V20H34Z" fill="#A2A2A2"/>
</g>
</g>
</g>
<defs>
<clipPath id="clip0_518_5601">
<rect width="48" height="48" fill="white"/>
</clipPath>
<clipPath id="clip1_518_5601">
<rect width="48" height="48" fill="white"/>
</clipPath>
<clipPath id="clip2_518_5601">
<rect width="48" height="48" fill="white"/>
</clipPath>
</defs>
</svg>
