<svg width="44" height="42" viewBox="0 0 44 42" fill="none" xmlns="http://www.w3.org/2000/svg">
<path d="M21.2392 1.34164C21.4786 0.604592 22.5214 0.604592 22.7608 1.34164L27.2087 15.0308C27.3158 15.3604 27.623 15.5836 27.9696 15.5836H42.3632C43.1382 15.5836 43.4604 16.5753 42.8334 17.0308L31.1887 25.4912C30.9083 25.6949 30.791 26.056 30.8981 26.3856L35.346 40.0748C35.5855 40.8118 34.7419 41.4247 34.1149 40.9692L22.4702 32.5088C22.1898 32.3051 21.8102 32.3051 21.5298 32.5088L9.88507 40.9692C9.2581 41.4247 8.41452 40.8118 8.654 40.0748L13.1019 26.3856C13.209 26.056 13.0917 25.6949 12.8113 25.4912L1.16656 17.0308C0.539592 16.5753 0.861812 15.5836 1.63679 15.5836H16.0304C16.377 15.5836 16.6842 15.3604 16.7913 15.0308L21.2392 1.34164Z" fill="#E6454C"/>
</svg>
