<svg width="48" height="48" viewBox="0 0 48 48" fill="none" xmlns="http://www.w3.org/2000/svg">
<g clip-path="url(#clip0_274_7484)">
<g clip-path="url(#clip1_274_7484)">
<path d="M6.67892 34.0004C5.81442 32.503 5.16554 30.9404 4.72266 29.3482C6.6676 28.3558 7.99944 26.3336 7.99944 24.0004C7.99944 21.669 6.6696 19.648 4.72706 18.6548C5.6205 15.433 7.31714 12.4325 9.72948 9.98002C11.5614 11.1683 13.9787 11.3107 15.9994 10.144C18.0202 8.97732 19.1055 6.8127 18.9924 4.63208C22.3226 3.7692 25.7694 3.80008 29.0062 4.63724C28.895 6.81612 29.9802 8.97824 31.9994 10.144C34.0202 11.3106 36.4374 11.1683 38.2692 9.98014C39.4266 11.1597 40.4554 12.503 41.32 14.0004C42.1844 15.4978 42.8334 17.0605 43.2762 18.6526C41.3312 19.6449 39.9994 21.6672 39.9994 24.0004C39.9994 26.332 41.3292 28.3528 43.2718 29.346C42.3784 32.5678 40.6818 35.5682 38.2694 38.0208C36.4374 36.8326 34.0202 36.6902 31.9994 37.8568C29.9786 39.0234 28.8934 41.1882 29.0064 43.3688C25.6764 44.2316 22.2296 44.2008 18.9927 43.3636C19.1038 41.1846 18.0186 39.0226 15.9994 37.8568C13.9788 36.6902 11.5616 36.8324 9.72968 38.0206C8.57234 36.841 7.54344 35.4978 6.67892 34.0004ZM17.9994 34.3928C20.1822 35.653 21.7498 37.6454 22.5006 39.9318C23.4972 40.0266 24.5004 40.028 25.4972 39.935C26.2476 37.6474 27.8156 35.6536 29.9994 34.3928C32.1832 33.1318 34.694 32.771 37.0504 33.2648C37.6292 32.448 38.1296 31.5784 38.5458 30.668C36.9412 28.8746 35.9994 26.5208 35.9994 24.0004C35.9994 21.48 36.9412 19.1264 38.5458 17.333C38.3376 16.881 38.1076 16.4364 37.8558 16.0004C37.604 15.5644 37.334 15.143 37.0466 14.7368C34.6914 15.2295 32.1822 14.8683 29.9994 13.6081C27.8166 12.3479 26.2492 10.3554 25.4982 8.0691C24.5018 7.97428 23.4984 7.97292 22.5018 8.06584C21.7512 10.3534 20.1832 12.3473 17.9994 13.6081C15.8156 14.8689 13.3049 15.2299 10.9486 14.7361C10.3697 15.5528 9.86926 16.4223 9.45312 17.3327C11.0576 19.1262 11.9994 21.48 11.9994 24.0004C11.9994 26.5208 11.0577 28.8744 9.45312 30.6678C9.66134 31.1198 9.89128 31.5644 10.143 32.0004C10.3948 32.4364 10.6648 32.8578 10.9522 33.264C13.3075 32.7714 15.8168 33.1326 17.9994 34.3928ZM23.9994 30.0004C20.6858 30.0004 17.9994 27.3142 17.9994 24.0004C17.9994 20.6868 20.6858 18.0004 23.9994 18.0004C27.3132 18.0004 29.9994 20.6868 29.9994 24.0004C29.9994 27.3142 27.3132 30.0004 23.9994 30.0004ZM23.9994 26.0004C25.104 26.0004 25.9994 25.105 25.9994 24.0004C25.9994 22.8958 25.104 22.0004 23.9994 22.0004C22.8948 22.0004 21.9994 22.8958 21.9994 24.0004C21.9994 25.105 22.8948 26.0004 23.9994 26.0004Z" fill="#A2A2A2"/>
</g>
</g>
<defs>
<clipPath id="clip0_274_7484">
<rect width="48" height="48" fill="white"/>
</clipPath>
<clipPath id="clip1_274_7484">
<rect width="48" height="48" fill="white"/>
</clipPath>
</defs>
</svg>
