<svg width="48" height="48" viewBox="0 0 48 48" fill="none" xmlns="http://www.w3.org/2000/svg">
<path fill-rule="evenodd" clip-rule="evenodd" d="M11.4546 5.45459C10.3937 5.45459 9.37631 5.87602 8.62616 6.62616C7.87602 7.37631 7.45459 8.39372 7.45459 9.45459V39.4546C7.45459 40.5155 7.87602 41.5329 8.62616 42.283C9.37631 43.0332 10.3937 43.4546 11.4546 43.4546H17.4546V39.4546H11.4546V9.45459H35.4546V17.4546H39.4546V9.45459C39.4546 8.39372 39.0332 7.37631 38.283 6.62616C37.5329 5.87602 36.5155 5.45459 35.4546 5.45459H11.4546ZM17.4546 15.4546C16.9242 15.4546 16.4154 15.6653 16.0404 16.0404C15.6653 16.4154 15.4546 16.9242 15.4546 17.4546C15.4546 17.985 15.6653 18.4937 16.0404 18.8688C16.4154 19.2439 16.9242 19.4546 17.4546 19.4546H25.4546C25.985 19.4546 26.4937 19.2439 26.8688 18.8688C27.2439 18.4937 27.4546 17.985 27.4546 17.4546C27.4546 16.9242 27.2439 16.4154 26.8688 16.0404C26.4937 15.6653 25.985 15.4546 25.4546 15.4546H17.4546ZM33.3526 23.0766C34.481 21.9666 36.0023 21.3476 37.5852 21.3542C39.168 21.3608 40.6841 21.9926 41.8032 23.112C42.9223 24.2314 43.5537 25.7476 43.56 27.3304C43.5662 28.9132 42.9468 30.4344 41.8366 31.5626L30.5246 42.8766C30.1496 43.2517 29.641 43.4625 29.1106 43.4626H23.4526C22.9222 43.4626 22.4134 43.2519 22.0384 42.8768C21.6633 42.5017 21.4526 41.993 21.4526 41.4626V35.8046C21.4527 35.2742 21.6635 34.7656 22.0386 34.3906L33.3526 23.0766ZM39.0086 25.9046C38.6335 25.5296 38.1249 25.319 37.5946 25.319C37.0643 25.319 36.5556 25.5296 36.1806 25.9046L39.0086 28.7346C39.1945 28.5488 39.3421 28.3283 39.4427 28.0855C39.5434 27.8427 39.5952 27.5824 39.5952 27.3196C39.5952 27.0568 39.5434 26.7965 39.4427 26.5537C39.3421 26.3109 39.1945 26.0903 39.0086 25.9046ZM36.1806 31.5626L33.3526 28.7346L25.4526 36.6346V39.4626H28.2806L36.1806 31.5626Z" fill="white"/>
</svg>
