<svg width="48" height="48" viewBox="0 0 48 48" fill="none" xmlns="http://www.w3.org/2000/svg">
<g clip-path="url(#clip0_274_7423)">
<g clip-path="url(#clip1_274_7423)">
<path d="M15.1111 16.6666V13.0476C15.1111 8.05075 19.0908 4 24 4C28.9092 4 32.8889 8.05075 32.8889 13.0476V16.6666H38.2222C39.2041 16.6666 40 17.4768 40 18.4762V40.1905C40 41.1897 39.2041 42 38.2222 42H9.77778C8.79595 42 8 41.1897 8 40.1905V18.4762C8 17.4768 8.79595 16.6666 9.77778 16.6666H15.1111ZM15.1111 20.2857H11.5556V38.381H36.4444V20.2857H32.8889V23.9048H29.3333V20.2857H18.6667V23.9048H15.1111V20.2857ZM18.6667 16.6666H29.3333V13.0476C29.3333 10.0495 26.9454 7.61903 24 7.61903C21.0544 7.61903 18.6667 10.0495 18.6667 13.0476V16.6666Z" fill="white"/>
</g>
</g>
<defs>
<clipPath id="clip0_274_7423">
<rect width="48" height="48" fill="white"/>
</clipPath>
<clipPath id="clip1_274_7423">
<rect width="48" height="48" fill="white"/>
</clipPath>
</defs>
</svg>
