<svg width="48" height="48" viewBox="0 0 48 48" fill="none" xmlns="http://www.w3.org/2000/svg">
<path d="M21.95 5.99763C22.0671 6.51479 21.974 7.05728 21.6912 7.50583C21.4084 7.95438 20.9591 8.27228 20.442 8.38963C17.1163 9.14794 14.1199 10.9493 11.8902 13.5308C9.66054 16.1122 8.31423 19.3388 8.04777 22.7394C7.78131 26.1401 8.60865 29.5369 10.4091 32.4342C12.2095 35.3314 14.8887 37.5775 18.0557 38.8445C21.2228 40.1116 24.7119 40.3333 28.0138 39.4773C31.3158 38.6214 34.2577 36.7326 36.4104 34.0865C38.5631 31.4404 39.8137 28.1757 39.9799 24.7686C40.146 21.3616 39.219 17.9906 37.334 15.1476C37.1886 14.9289 37.0878 14.6836 37.0372 14.4258C36.9866 14.1681 36.9873 13.9029 37.0392 13.6454C37.144 13.1253 37.4512 12.6682 37.893 12.3746C38.3349 12.081 38.8752 11.975 39.3953 12.0798C39.6528 12.1317 39.8975 12.2339 40.1156 12.3803C40.3336 12.5268 40.5206 12.7149 40.666 12.9336C42.8454 16.2101 44.0055 20.0586 44 23.9936C44 35.0396 35.046 43.9936 24 43.9936C12.954 43.9936 4 35.0396 4 23.9936C4 14.4736 10.65 6.50963 19.558 4.48963C20.0752 4.37256 20.6176 4.46564 21.0662 4.74842C21.5147 5.0312 21.8326 5.48053 21.95 5.99763ZM26 6.02163C25.9998 5.72161 26.0663 5.42531 26.1949 5.15424C26.3235 4.88317 26.5109 4.64415 26.7434 4.45454C26.9759 4.26493 27.2477 4.1295 27.5391 4.05807C27.8305 3.98665 28.1342 3.98103 28.428 4.04163L28.658 4.10363L34.632 6.09563C35.1173 6.25603 35.5228 6.59615 35.7652 7.04616C36.0076 7.49618 36.0685 8.02192 35.9354 8.51543C35.8023 9.00893 35.4853 9.43275 35.0495 9.69985C34.6137 9.96694 34.0922 10.057 33.592 9.95163L33.368 9.89163L30 8.76763V23.9936C29.9994 25.2501 29.6044 26.4748 28.8706 27.4947C28.1368 28.5147 27.1013 29.2786 25.9101 29.6786C24.719 30.0786 23.4323 30.0946 22.2317 29.7243C21.031 29.354 19.9768 28.616 19.2179 27.6146C18.459 26.6131 18.0337 25.3987 18.0019 24.1426C17.9701 22.8865 18.3335 21.6521 19.0408 20.6135C19.748 19.575 20.7635 18.7847 21.9439 18.3541C23.1243 17.9235 24.4102 17.8744 25.62 18.2136L26 18.3336V6.02363V6.02163Z" fill="white"/>
</svg>
