<svg width="48" height="48" viewBox="0 0 48 48" fill="none" xmlns="http://www.w3.org/2000/svg">
<mask id="path-1-outside-1_274_7488" maskUnits="userSpaceOnUse" x="1" y="8" width="46" height="36" fill="black">
<rect fill="white" x="1" y="8" width="46" height="36"/>
<path fill-rule="evenodd" clip-rule="evenodd" d="M9 12C6.79086 12 5 13.7909 5 16V29.8892C5 32.0983 6.79086 33.8892 9 33.8892H11.7932V39.5502L17.4542 33.8892H38.74C40.9491 33.8892 42.74 32.0983 42.74 29.8892V16C42.74 13.7909 40.9491 12 38.74 12H9Z"/>
</mask>
<path d="M11.7932 33.8892H15.7932C15.7932 31.6801 14.0023 29.8892 11.7932 29.8892V33.8892ZM11.7932 39.5502H7.7932C7.7932 41.1681 8.76777 42.6266 10.2625 43.2458C11.7572 43.8649 13.4776 43.5227 14.6216 42.3787L11.7932 39.5502ZM17.4542 33.8892V29.8892C16.3934 29.8892 15.376 30.3106 14.6258 31.0608L17.4542 33.8892ZM9 16V16V8C4.58173 8 1 11.5817 1 16H9ZM9 29.8892V16H1V29.8892H9ZM9 29.8892H9H1C1 34.3075 4.58172 37.8892 9 37.8892V29.8892ZM11.7932 29.8892H9V37.8892H11.7932V29.8892ZM15.7932 39.5502V33.8892H7.7932V39.5502H15.7932ZM14.6258 31.0608L8.96477 36.7218L14.6216 42.3787L20.2827 36.7176L14.6258 31.0608ZM38.74 29.8892H17.4542V37.8892H38.74V29.8892ZM38.74 29.8892V29.8892V37.8892C43.1583 37.8892 46.74 34.3075 46.74 29.8892H38.74ZM38.74 16V29.8892H46.74V16H38.74ZM38.74 16H46.74C46.74 11.5817 43.1583 8 38.74 8V16ZM9 16H38.74V8H9V16Z" fill="white" mask="url(#path-1-outside-1_274_7488)"/>
<path d="M14.424 19.8222C14.6529 19.0637 15.7269 19.0637 15.9558 19.8222L16.1198 20.3656C16.2217 20.7034 16.5328 20.9346 16.8856 20.9346L17.5353 20.9346C18.2958 20.9346 18.6272 21.896 18.0282 22.3646L17.4032 22.8537C17.1433 23.057 17.0349 23.399 17.1302 23.7149L17.3446 24.4252C17.5701 25.1728 16.7007 25.7675 16.0857 25.2863L15.6829 24.9712C15.3933 24.7446 14.9865 24.7446 14.6969 24.9712L14.2941 25.2863C13.6791 25.7675 12.8097 25.1728 13.0352 24.4252L13.2495 23.7149C13.3448 23.399 13.2365 23.057 12.9766 22.8537L12.3515 22.3646C11.7525 21.896 12.0839 20.9346 12.8445 20.9346L13.4941 20.9346C13.847 20.9346 14.1581 20.7034 14.26 20.3656L14.424 19.8222Z" fill="white"/>
<path d="M23.4816 19.8222C23.7105 19.0637 24.7845 19.0637 25.0134 19.8222L25.1774 20.3656C25.2793 20.7034 25.5904 20.9346 25.9433 20.9346L26.5929 20.9346C27.3534 20.9346 27.6849 21.896 27.0859 22.3646L26.4608 22.8537C26.2009 23.057 26.0926 23.399 26.1879 23.7149L26.4022 24.4252C26.6277 25.1728 25.7583 25.7675 25.1433 25.2863L24.7405 24.9712C24.4509 24.7446 24.0441 24.7446 23.7545 24.9712L23.3517 25.2863C22.7367 25.7675 21.8673 25.1728 22.0928 24.4252L22.3072 23.7149C22.4025 23.399 22.2941 23.057 22.0342 22.8537L21.4091 22.3646C20.8102 21.896 21.1416 20.9346 21.9021 20.9346L22.5517 20.9346C22.9046 20.9346 23.2157 20.7034 23.3176 20.3656L23.4816 19.8222Z" fill="white"/>
<path d="M32.539 19.8222C32.7678 19.0637 33.8419 19.0637 34.0708 19.8222L34.2347 20.3656C34.3367 20.7034 34.6478 20.9346 35.0006 20.9346L35.6503 20.9346C36.4108 20.9346 36.7422 21.896 36.1432 22.3646L35.5182 22.8537C35.2583 23.057 35.1499 23.399 35.2452 23.7149L35.4596 24.4252C35.6851 25.1728 34.8157 25.7675 34.2007 25.2863L33.7979 24.9712C33.5083 24.7446 33.1015 24.7446 32.8119 24.9712L32.4091 25.2863C31.7941 25.7675 30.9246 25.1728 31.1502 24.4252L31.3645 23.7149C31.4598 23.399 31.3514 23.057 31.0916 22.8537L30.4665 22.3646C29.8675 21.896 30.1989 20.9346 30.9595 20.9346L31.6091 20.9346C31.9619 20.9346 32.2731 20.7034 32.375 20.3656L32.539 19.8222Z" fill="white"/>
</svg>
