<svg width="48" height="48" viewBox="0 0 48 48" fill="none" xmlns="http://www.w3.org/2000/svg">
<path d="M40.5 10H33V8.5C33 7.30653 32.5259 6.16193 31.682 5.31802C30.8381 4.47411 29.6935 4 28.5 4H19.5C18.3065 4 17.1619 4.47411 16.318 5.31802C15.4741 6.16193 15 7.30653 15 8.5V10H7.5C7.10218 10 6.72064 10.158 6.43934 10.4393C6.15804 10.7206 6 11.1022 6 11.5C6 11.8978 6.15804 12.2794 6.43934 12.5607C6.72064 12.842 7.10218 13 7.5 13H9V40C9 40.7956 9.31607 41.5587 9.87868 42.1213C10.4413 42.6839 11.2044 43 12 43H36C36.7956 43 37.5587 42.6839 38.1213 42.1213C38.6839 41.5587 39 40.7956 39 40V13H40.5C40.8978 13 41.2794 12.842 41.5607 12.5607C41.842 12.2794 42 11.8978 42 11.5C42 11.1022 41.842 10.7206 41.5607 10.4393C41.2794 10.158 40.8978 10 40.5 10ZM18 8.5C18 8.10218 18.158 7.72064 18.4393 7.43934C18.7206 7.15804 19.1022 7 19.5 7H28.5C28.8978 7 29.2794 7.15804 29.5607 7.43934C29.842 7.72064 30 8.10218 30 8.5V10H18V8.5ZM36 40H12V13H36V40ZM21 20.5V32.5C21 32.8978 20.842 33.2794 20.5607 33.5607C20.2794 33.842 19.8978 34 19.5 34C19.1022 34 18.7206 33.842 18.4393 33.5607C18.158 33.2794 18 32.8978 18 32.5V20.5C18 20.1022 18.158 19.7206 18.4393 19.4393C18.7206 19.158 19.1022 19 19.5 19C19.8978 19 20.2794 19.158 20.5607 19.4393C20.842 19.7206 21 20.1022 21 20.5ZM30 20.5V32.5C30 32.8978 29.842 33.2794 29.5607 33.5607C29.2794 33.842 28.8978 34 28.5 34C28.1022 34 27.7206 33.842 27.4393 33.5607C27.158 33.2794 27 32.8978 27 32.5V20.5C27 20.1022 27.158 19.7206 27.4393 19.4393C27.7206 19.158 28.1022 19 28.5 19C28.8978 19 29.2794 19.158 29.5607 19.4393C29.842 19.7206 30 20.1022 30 20.5Z" fill="white"/>
</svg>
