<svg width="48" height="48" viewBox="0 0 48 48" fill="none" xmlns="http://www.w3.org/2000/svg">
<path fill-rule="evenodd" clip-rule="evenodd" d="M35.7416 12.2583C34.6165 11.1336 33.0907 10.5017 31.4998 10.5017C29.9088 10.5017 28.383 11.1336 27.2579 12.2583L12.2583 27.2579C11.6853 27.8114 11.2282 28.4734 10.9138 29.2054C10.5993 29.9374 10.4338 30.7247 10.4269 31.5214C10.42 32.318 10.5718 33.1081 10.8735 33.8454C11.1751 34.5828 11.6206 35.2527 12.184 35.816C12.7473 36.3794 13.4172 36.8249 14.1546 37.1265C14.8919 37.4282 15.682 37.58 16.4786 37.5731C17.2753 37.5662 18.0626 37.4007 18.7946 37.0862C19.5266 36.7718 20.1886 36.3147 20.7421 35.7416L22.41 34.0767C22.8366 33.6793 23.4007 33.4629 23.9836 33.4732C24.5665 33.4835 25.1226 33.7196 25.5348 34.1318C25.947 34.5441 26.1832 35.1002 26.1935 35.6831C26.2037 36.266 25.9874 36.8301 25.59 37.2566L23.925 38.9246C21.9558 40.8937 19.2851 42 16.5002 42C13.7154 42 11.0446 40.8937 9.07544 38.9246C7.10627 36.9554 6 34.2846 6 31.4998C6 28.7149 7.10627 26.0442 9.07544 24.075L24.075 9.07544C26.0442 7.10627 28.7149 6 31.4998 6C34.2846 6 36.9554 7.10627 38.9246 9.07544C40.8937 11.0446 42 13.7154 42 16.5002C42 19.2851 40.8937 21.9558 38.9246 23.925L33.0087 29.8408C31.8133 31.0367 30.1918 31.7086 28.5009 31.7089C26.8101 31.7092 25.1883 31.0378 23.9925 29.8423C22.7967 28.6469 22.1247 27.0254 22.1244 25.3345C22.1241 23.6437 22.7956 22.0219 23.991 20.8261L29.9098 14.9103C30.1158 14.6892 30.3642 14.5119 30.6402 14.3889C30.9162 14.266 31.2141 14.1998 31.5162 14.1945C31.8183 14.1892 32.1184 14.2448 32.3985 14.3579C32.6787 14.4711 32.9332 14.6395 33.1468 14.8532C33.3605 15.0668 33.5289 15.3213 33.6421 15.6015C33.7552 15.8816 33.8108 16.1817 33.8055 16.4838C33.8002 16.7859 33.734 17.0838 33.6111 17.3598C33.4881 17.6358 33.3108 17.8842 33.0897 18.0902L27.1739 24.009C26.8396 24.3641 26.6567 24.8354 26.6642 25.3231C26.6716 25.8107 26.8688 26.2763 27.2139 26.6209C27.5589 26.9656 28.0247 27.1622 28.5123 27.1692C29 27.1761 29.4712 26.9927 29.8258 26.6579L35.7416 20.7421C36.8664 19.617 37.4983 18.0912 37.4983 16.5002C37.4983 14.9093 36.8664 13.3835 35.7416 12.2583Z" fill="white"/>
</svg>
