<svg width="174" height="72" viewBox="0 0 174 72" fill="none" xmlns="http://www.w3.org/2000/svg">
<g clip-path="url(#clip0_939_6716)">
<path d="M39 72L33.345 66.8207C13.26 48.497 0 36.3728 0 21.5804C0 9.45613 9.438 0 21.45 0C28.236 0 34.749 3.1782 39 8.16131C43.251 3.1782 49.764 0 56.55 0C68.562 0 78 9.45613 78 21.5804C78 36.3728 64.74 48.497 44.655 66.8207L39 72Z" fill="#E6454C"/>
<path d="M131.371 64.6084L131.367 64.6044C121.266 55.389 113.122 47.943 107.469 40.9846C101.849 34.0675 99 27.9962 99 21.5804C99 11.0994 107.108 3 117.45 3C123.322 3 129.013 5.76592 132.718 10.1083L135 12.7837L137.282 10.1083C140.987 5.76592 146.678 3 152.55 3C162.892 3 171 11.0994 171 21.5804C171 27.9962 168.151 34.0675 162.531 40.9846C156.878 47.943 148.734 55.389 138.633 64.6044L138.629 64.6084L135 67.9319L131.371 64.6084Z" stroke="white" stroke-width="6"/>
</g>
<defs>
<clipPath id="clip0_939_6716">
<rect width="174" height="72" fill="white"/>
</clipPath>
</defs>
</svg>
