<svg width="78" height="72" viewBox="0 0 78 72" fill="none" xmlns="http://www.w3.org/2000/svg">
<path d="M35.3712 64.6084L35.3669 64.6044C25.2657 55.389 17.1223 47.943 11.469 40.9846C5.84935 34.0675 3 27.9962 3 21.5804C3 11.0994 11.1084 3 21.45 3C27.3223 3 33.0132 5.76592 36.7177 10.1083L39 12.7837L41.2823 10.1083C44.9868 5.76592 50.6777 3 56.55 3C66.8916 3 75 11.0994 75 21.5804C75 27.9962 72.1507 34.0675 66.531 40.9846C60.8777 47.943 52.7343 55.389 42.6331 64.6044L42.6288 64.6084L39 67.9319L35.3712 64.6084Z" stroke="white" stroke-width="6"/>
</svg>
