<svg width="48" height="48" viewBox="0 0 48 48" fill="none" xmlns="http://www.w3.org/2000/svg">
<path fill-rule="evenodd" clip-rule="evenodd" d="M4.58709 20.038C6.75946 17.2574 13.9428 9.00437 18.6206 4.83771C22.6653 1.23491 17.231 10.1218 14.0082 15.0156C15.5457 13.6946 18.6206 11.3408 18.6206 12.4937C18.6206 13.1053 17.7551 14.7244 16.7128 16.4415C19.4495 17.1031 21.8974 18.6658 23.6717 20.8903C25.5116 23.1971 26.5155 26.0755 26.5155 29.0439H20.1282C20.1282 27.5617 19.6269 26.1244 18.7082 24.9725C17.7895 23.8207 16.509 23.0241 15.0812 22.7162C13.6533 22.4083 12.1646 22.6076 10.8642 23.2809C9.56371 23.9542 8.53041 25.0605 7.93716 26.4148C7.3439 27.7692 7.22667 29.2893 7.60508 30.7209C7.98349 32.1525 8.83459 33.4087 10.016 34.2793C11.1973 35.1499 12.6373 35.5821 14.095 35.5037C15.5527 35.4252 17.7127 34.8736 19.116 32.8008C19.116 32.8008 19.6912 34.9494 20.3918 36.169C21.0201 37.263 22.3009 38.6652 22.3009 38.6652C20.1298 40.653 17.3523 41.8234 14.4331 41.9805C11.514 42.1377 8.63017 41.272 6.26429 39.5285C3.89841 37.7849 2.19397 35.2692 1.43615 32.4023C0.678323 29.5353 0.913094 26.491 2.10118 23.7788C2.71234 22.3836 3.55669 21.1199 4.58709 20.038ZM20.1371 29.0448C20.1371 32.0132 21.141 34.8916 22.9809 37.1984C24.8208 39.5051 27.385 41.1003 30.2445 41.7169C33.104 42.3336 36.0854 41.9344 38.6897 40.5861C39.4743 40.1799 40.2103 39.6949 40.8883 39.1414C43.0466 37.7438 45.4684 35.6151 47.1362 32.666C49.1204 29.1571 47.3579 30.4608 45.1581 32.6165C45.794 30.3656 45.82 27.9698 45.2164 25.6865C44.4586 22.8195 42.7542 20.3038 40.3883 18.5602C38.0224 16.8167 35.1386 15.951 32.2194 16.1082C29.3003 16.2653 26.5228 17.4357 24.3517 19.4235C24.3517 19.4235 25.6325 20.8257 26.2608 21.9197C26.9614 23.1393 27.5366 25.2879 27.5366 25.2879C28.9399 23.2152 31.0999 22.6635 32.5576 22.585C34.0153 22.5066 35.4552 22.9388 36.6366 23.8094C37.818 24.6801 38.6691 25.9363 39.0475 27.3678C39.4259 28.7994 39.3087 30.3196 38.7154 31.6739C38.1222 33.0282 37.0889 34.1345 35.7884 34.8078C34.488 35.4811 32.9993 35.6804 31.5714 35.3725C30.1436 35.0646 28.8631 34.2681 27.9444 33.1162C27.0257 31.9644 26.5244 30.5271 26.5244 29.0448L20.1371 29.0448ZM20.1296 10.8463C20.4235 10.8463 20.6618 10.6043 20.6618 10.3058C20.6618 10.0074 20.4235 9.76542 20.1296 9.76542C19.8357 9.76542 19.5974 10.0074 19.5974 10.3058C19.5974 10.6043 19.8357 10.8463 20.1296 10.8463Z" fill="#ADFF00"/>
</svg>
