<svg width="48" height="48" viewBox="0 0 48 48" fill="none" xmlns="http://www.w3.org/2000/svg">
<path d="M42.7174 39.4037C40.3073 35.1739 36.5441 31.8781 32.0334 30.0469C34.2765 28.3645 35.9334 26.0191 36.7695 23.3427C37.6055 20.6663 37.5782 17.7948 36.6916 15.1348C35.8049 12.4748 34.1038 10.1612 31.8291 8.52169C29.5545 6.88222 26.8217 6 24.0178 6C21.2139 6 18.481 6.88222 16.2064 8.52169C13.9318 10.1612 12.2306 12.4748 11.3439 15.1348C10.4573 17.7948 10.43 20.6663 11.2661 23.3427C12.1021 26.0191 13.759 28.3645 16.0021 30.0469C11.4914 31.8781 7.72818 35.1739 5.31815 39.4037C5.16881 39.6438 5.06928 39.9115 5.02547 40.1909C4.98166 40.4702 4.99447 40.7556 5.06312 41.0299C5.13178 41.3042 5.25489 41.5619 5.42514 41.7877C5.59538 42.0134 5.80929 42.2027 6.05413 42.3441C6.29898 42.4856 6.56976 42.5764 6.85039 42.6111C7.13103 42.6458 7.41577 42.6238 7.68771 42.5462C7.95965 42.4687 8.21322 42.3373 8.43335 42.1598C8.65348 41.9823 8.83569 41.7624 8.96912 41.5131C12.1543 36.0076 17.7793 32.724 24.0178 32.724C30.2562 32.724 35.8812 36.0094 39.0664 41.5131C39.3556 41.9781 39.8142 42.3124 40.3454 42.4454C40.8766 42.5783 41.4387 42.4995 41.9129 42.2256C42.387 41.9516 42.736 41.504 42.8862 40.9774C43.0363 40.4508 42.9758 39.8865 42.7174 39.4037ZM14.8771 19.3646C14.8771 17.5568 15.4132 15.7896 16.4176 14.2864C17.422 12.7832 18.8496 11.6116 20.5198 10.9198C22.19 10.228 24.0279 10.047 25.801 10.3997C27.5741 10.7524 29.2028 11.6229 30.4812 12.9012C31.7595 14.1796 32.6301 15.8083 32.9827 17.5814C33.3354 19.3545 33.1544 21.1924 32.4626 22.8626C31.7708 24.5328 30.5992 25.9604 29.096 26.9648C27.5928 27.9692 25.8256 28.5053 24.0178 28.5053C21.5944 28.5025 19.271 27.5386 17.5574 25.825C15.8438 24.1114 14.8799 21.788 14.8771 19.3646Z" fill="#CCCCCC"/>
</svg>
