<svg width="237" height="40" viewBox="0 0 237 40" fill="none" xmlns="http://www.w3.org/2000/svg">
<path d="M72.1458 26.3635C72.1458 29.4882 73.2315 32.518 75.2213 34.9461C77.2111 37.3743 79.9843 39.0534 83.0768 39.7025C86.1693 40.3516 89.3935 39.9314 92.21 38.5121C95.0266 37.0928 97.2645 34.7606 98.5494 31.9057C99.8343 29.0507 100.088 25.8463 99.2686 22.8285C98.449 19.8106 96.6057 17.1625 94.0471 15.3272C91.4884 13.4919 88.3697 12.5808 85.2126 12.7462C82.0556 12.9116 79.0518 14.1436 76.7038 16.236C76.7038 16.236 78.0889 17.7119 78.7685 18.8635C79.5261 20.1473 80.1482 22.4089 80.1482 22.4089C81.6659 20.2271 84.0019 19.6464 85.5783 19.5638C87.1548 19.4812 88.7121 19.9362 89.9897 20.8527C91.2673 21.7691 92.1878 23.0914 92.597 24.5983C93.0063 26.1052 92.8795 27.7053 92.2379 29.1309C91.5963 30.5565 90.4788 31.7211 89.0724 32.4298C87.666 33.1385 86.056 33.3483 84.5118 33.0242C82.9676 32.7001 81.5828 31.8616 80.5893 30.6492C79.5957 29.4367 79.0535 27.9238 79.0535 26.3635H72.1458Z" fill="white"/>
<path d="M79.0444 26.3634C79.0444 23.2387 77.9587 20.2089 75.9689 17.7808C73.9791 15.3526 71.2059 13.6735 68.1134 13.0244C65.0209 12.3753 61.7967 12.7955 58.9802 14.2148C56.1636 15.6341 53.9257 17.9663 52.6408 20.8212C51.3559 23.6762 51.102 26.8806 51.9216 29.8984C52.7412 32.9163 54.5845 35.5644 57.1431 37.3997C59.7018 39.235 62.8206 40.1461 65.9776 39.9807C69.1346 39.8153 72.1384 38.5833 74.4864 36.4909C74.4864 36.4909 73.1013 35.015 72.4217 33.8634C71.6641 32.5796 71.042 30.3179 71.042 30.3179C69.5243 32.4998 67.1883 33.0805 65.6119 33.1631C64.0355 33.2457 62.4781 32.7907 61.2005 31.8742C59.9229 30.9578 59.0024 29.6355 58.5932 28.1286C58.1839 26.6217 58.3107 25.0216 58.9523 23.596C59.5939 22.1704 60.7114 21.0058 62.1178 20.2971C63.5242 19.5884 65.1342 19.3786 66.6784 19.7027C68.2226 20.0268 69.6074 20.8653 70.601 22.0777C71.5945 23.2902 72.1367 24.8031 72.1367 26.3634H79.0444Z" fill="white"/>
<path d="M17.1704 39.968C11.5644 39.968 7.30119 38.5803 4.38071 35.8049C1.46024 32.9964 0 29.0479 0 23.9596C0 18.64 1.49381 14.4933 4.48142 11.5196C7.46903 8.5459 11.8665 7.05905 17.6739 7.05905C19.6545 7.05905 21.4336 7.1747 23.0113 7.40598C24.6226 7.63727 26.15 7.98421 27.5935 8.44678V15.2863C26.15 14.7576 24.6394 14.3942 23.0617 14.1959C21.5175 13.9977 19.923 13.8986 18.2782 13.8986C14.787 13.8986 12.2358 14.7246 10.6245 16.3767C9.04676 17.9957 8.2579 20.5233 8.2579 23.9596C8.2579 27.0985 9.0132 29.4279 10.5238 30.9478C12.0344 32.4347 14.2667 33.1781 17.2207 33.1781C19.1677 33.1781 20.9804 32.9137 22.6589 32.3851V26.3386H15.6598V21.3328H29.4565V37.143C28.3152 37.8699 26.7207 38.5307 24.673 39.1255C22.6589 39.6872 20.158 39.968 17.1704 39.968Z" fill="white"/>
<path d="M33.6087 39.4724V15.9802H41.3127L41.5645 18.1609C42.6051 17.5331 43.8975 16.9714 45.4417 16.4758C46.9858 15.9471 48.53 15.6167 50.0741 15.4845V21.4815C49.2013 21.5806 48.2279 21.7458 47.1537 21.9771C46.113 22.1754 45.106 22.4232 44.1325 22.7206C43.1926 23.0179 42.3869 23.3318 41.7155 23.6622V39.4724H33.6087Z" fill="white"/>
<path d="M109.28 39.4724L99.8635 15.9802H108.323L113.56 31.2452L118.847 15.9802H127.306L117.89 39.4724H109.28Z" fill="white"/>
<path d="M141.492 39.968C137.33 39.968 133.989 38.9603 131.472 36.9448C128.954 34.8962 127.695 31.8234 127.695 27.7263C127.695 23.9926 128.736 21.0189 130.817 18.8052C132.898 16.5914 136.02 15.4845 140.183 15.4845C143.976 15.4845 146.913 16.4427 148.995 18.3591C151.076 20.2755 152.117 22.8527 152.117 26.0908V30.3035H135.198C135.567 31.8564 136.423 32.9468 137.766 33.5746C139.142 34.1693 141.005 34.4667 143.355 34.4667C144.664 34.4667 145.99 34.351 147.333 34.1198C148.709 33.8885 149.851 33.5911 150.757 33.2276V38.4316C149.616 38.9603 148.256 39.3403 146.678 39.5715C145.101 39.8359 143.372 39.968 141.492 39.968ZM135.198 25.6943H145.067V24.6535C145.067 23.497 144.715 22.5884 144.01 21.9276C143.305 21.2337 142.113 20.8868 140.435 20.8868C138.488 20.8868 137.128 21.2833 136.356 22.0763C135.584 22.8362 135.198 24.0422 135.198 25.6943Z" fill="white"/>
<path d="M156.239 39.4724V7.55467H164.346V33.3268H179.653V39.4724H156.239Z" fill="white"/>
<path d="M190.245 39.968C188.734 39.968 187.324 39.7037 186.015 39.1751C184.74 38.6464 183.716 37.8369 182.944 36.7465C182.172 35.6231 181.786 34.2354 181.786 32.5833C181.786 30.1713 182.608 28.288 184.253 26.9333C185.931 25.5456 188.432 24.8517 191.755 24.8517H198.402V24.3065C198.402 23.1171 197.999 22.2745 197.194 21.7789C196.388 21.2502 194.877 20.9859 192.662 20.9859C189.943 20.9859 187.274 21.3989 184.656 22.2249V17.0705C185.831 16.6079 187.257 16.228 188.936 15.9306C190.648 15.6332 192.444 15.4845 194.323 15.4845C198.016 15.4845 200.903 16.228 202.984 17.7148C205.099 19.2017 206.156 21.5641 206.156 24.8022V39.4724H199.057L198.654 37.49C197.781 38.2829 196.656 38.8942 195.28 39.3237C193.937 39.7533 192.259 39.968 190.245 39.968ZM192.813 35.0614C194.088 35.0614 195.196 34.8467 196.136 34.4171C197.076 33.9876 197.831 33.4424 198.402 32.7816V29.461H192.662C190.278 29.461 189.087 30.4026 189.087 32.286C189.087 33.145 189.389 33.8224 189.993 34.318C190.597 34.8136 191.537 35.0614 192.813 35.0614Z" fill="white"/>
<path d="M225.973 39.968C224.361 39.968 222.951 39.7698 221.743 39.3733C220.535 38.9438 219.444 38.316 218.47 37.49L218.067 39.4724H211.018V6.06782H219.125V17.0705C220.031 16.5419 221.055 16.1454 222.196 15.881C223.338 15.6167 224.512 15.4845 225.721 15.4845C229.212 15.4845 231.965 16.4427 233.979 18.3591C235.993 20.2425 237 23.2988 237 27.528C237 31.7573 236.01 34.8962 234.029 36.9448C232.049 38.9603 229.363 39.968 225.973 39.968ZM223.656 34.1693C225.469 34.1693 226.762 33.6407 227.534 32.5833C228.339 31.493 228.742 29.8244 228.742 27.5776C228.742 25.2647 228.322 23.6457 227.483 22.7206C226.678 21.7954 225.402 21.3328 223.656 21.3328C221.743 21.3328 220.232 21.8284 219.125 22.8197V32.3851C220.333 33.5746 221.844 34.1693 223.656 34.1693Z" fill="white"/>
<path d="M70.5067 0.88179C65.0388 5.62227 56.4054 15.3877 54.8705 17.4735V18.6112L65.5185 17.4735C67.1812 15.1348 70.5067 10.1542 70.5067 8.94062C70.5067 7.72706 67.1812 10.2047 65.5185 11.5953C69.0038 6.44396 74.881 -2.9106 70.5067 0.88179Z" fill="white"/>
<path d="M101.345 30.1749C98.2598 35.4844 92.7893 38.2675 90.4397 38.9953L96.1112 33.267C99.141 30.0241 104.429 24.8655 101.345 30.1749Z" fill="white"/>
<path d="M72.713 6.63668C72.713 6.95085 72.4553 7.20553 72.1375 7.20553C71.8196 7.20553 71.5619 6.95085 71.5619 6.63668C71.5619 6.3225 71.8196 6.06782 72.1375 6.06782C72.4553 6.06782 72.713 6.3225 72.713 6.63668Z" fill="white"/>
</svg>
