<svg width="48" height="48" viewBox="0 0 48 48" fill="none" xmlns="http://www.w3.org/2000/svg">
<path d="M39 24C39.0009 24.3918 38.902 24.7771 38.7128 25.1185C38.5237 25.46 38.2507 25.7459 37.9204 25.9485L17.4545 38.6604C17.1095 38.8749 16.7143 38.992 16.3098 38.9996C15.9052 39.0072 15.506 38.905 15.1534 38.7036C14.8041 38.5053 14.5132 38.2162 14.3105 37.8659C14.1077 37.5156 14.0006 37.1167 14 36.7104V11.2896C14.0006 10.8833 14.1077 10.4844 14.3105 10.1341C14.5132 9.78382 14.8041 9.49466 15.1534 9.29638C15.506 9.09497 15.9052 8.99279 16.3098 9.0004C16.7143 9.008 17.1095 9.12512 17.4545 9.33965L37.9204 22.0515C38.2507 22.2541 38.5237 22.54 38.7128 22.8815C38.902 23.2229 39.0009 23.6082 39 24Z" fill="white"/>
</svg>
