<svg width="48" height="48" viewBox="0 0 48 48" fill="none" xmlns="http://www.w3.org/2000/svg">
<path d="M27 33.75C27 34.3433 26.8241 34.9234 26.4944 35.4167C26.1648 35.9101 25.6962 36.2946 25.1481 36.5216C24.5999 36.7487 23.9967 36.8081 23.4147 36.6924C22.8328 36.5766 22.2982 36.2909 21.8787 35.8713C21.4591 35.4518 21.1734 34.9172 21.0577 34.3353C20.9419 33.7533 21.0013 33.1501 21.2284 32.6019C21.4554 32.0538 21.84 31.5852 22.3333 31.2556C22.8266 30.9259 23.4067 30.75 24 30.75C24.7957 30.75 25.5587 31.0661 26.1213 31.6287C26.6839 32.1913 27 32.9544 27 33.75ZM44.25 24C44.25 28.0051 43.0624 31.9202 40.8373 35.2503C38.6122 38.5804 35.4496 41.1759 31.7493 42.7086C28.0491 44.2412 23.9775 44.6423 20.0494 43.8609C16.1213 43.0796 12.5131 41.1509 9.6811 38.3189C6.84908 35.4869 4.92046 31.8787 4.13911 27.9506C3.35776 24.0225 3.75877 19.9509 5.29145 16.2507C6.82412 12.5505 9.41962 9.38784 12.7497 7.16274C16.0798 4.93764 19.9949 3.75 24 3.75C29.3688 3.75596 34.516 5.89134 38.3123 9.68767C42.1087 13.484 44.2441 18.6312 44.25 24ZM39.75 24C39.75 20.8849 38.8263 17.8398 37.0957 15.2498C35.365 12.6597 32.9052 10.641 30.0273 9.4489C27.1493 8.25682 23.9825 7.94491 20.9273 8.55263C17.8721 9.16035 15.0658 10.6604 12.8631 12.8631C10.6604 15.0657 9.16036 17.8721 8.55264 20.9273C7.94492 23.9825 8.25683 27.1493 9.44891 30.0273C10.641 32.9052 12.6597 35.365 15.2498 37.0956C17.8399 38.8263 20.885 39.75 24 39.75C28.1758 39.7455 32.1793 38.0847 35.132 35.132C38.0847 32.1793 39.7455 28.1758 39.75 24ZM24 12C19.4513 12 15.75 15.3638 15.75 19.5V20.25C15.75 20.8467 15.9871 21.419 16.409 21.841C16.831 22.2629 17.4033 22.5 18 22.5C18.5967 22.5 19.169 22.2629 19.591 21.841C20.013 21.419 20.25 20.8467 20.25 20.25V19.5C20.25 17.8463 21.9375 16.5 24 16.5C26.0625 16.5 27.75 17.8463 27.75 19.5C27.75 21.1537 26.0625 22.5 24 22.5C23.4033 22.5 22.831 22.7371 22.409 23.159C21.9871 23.581 21.75 24.1533 21.75 24.75V26.25C21.7487 26.8059 21.9532 27.3426 22.324 27.7567C22.6949 28.1707 23.206 28.4328 23.7587 28.4924C24.3114 28.5521 24.8665 28.405 25.3172 28.0796C25.7679 27.7541 26.0821 27.2734 26.1994 26.73C29.6831 25.8525 32.25 22.9444 32.25 19.5C32.25 15.3638 28.5488 12 24 12Z" fill="white"/>
</svg>
