<svg width="48" height="48" viewBox="0 0 48 48" fill="none" xmlns="http://www.w3.org/2000/svg">
<path d="M36.062 33.2336L44.6274 41.799L41.799 44.6274L33.2336 36.062C30.1538 38.526 26.248 40 22 40C12.064 40 4 31.936 4 22C4 12.064 12.064 4 22 4C31.936 4 40 12.064 40 22C40 26.248 38.526 30.1538 36.062 33.2336ZM32.0494 31.7496C34.495 29.2292 36 25.7912 36 22C36 14.265 29.735 8 22 8C14.265 8 8 14.265 8 22C8 29.735 14.265 36 22 36C25.7912 36 29.2292 34.495 31.7496 32.0494L32.0494 31.7496Z" fill="white"/>
</svg>
