<svg width="48" height="48" viewBox="0 0 48 48" fill="none" xmlns="http://www.w3.org/2000/svg">
<g clip-path="url(#clip0_274_7377)">
<g clip-path="url(#clip1_274_7377)">
<path d="M36 44C34.3333 44 32.9167 43.4167 31.75 42.25C30.5833 41.0833 30 39.6667 30 38C30 37.7667 30.0167 37.5247 30.05 37.274C30.0833 37.0233 30.1333 36.7987 30.2 36.6L16.1 28.4C15.5333 28.9 14.9 29.292 14.2 29.576C13.5 29.86 12.7667 30.0013 12 30C10.3333 30 8.91667 29.4167 7.75 28.25C6.58333 27.0833 6 25.6667 6 24C6 22.3333 6.58333 20.9167 7.75 19.75C8.91667 18.5833 10.3333 18 12 18C12.7667 18 13.5 18.142 14.2 18.426C14.9 18.71 15.5333 19.1013 16.1 19.6L30.2 11.4C30.1333 11.2 30.0833 10.9753 30.05 10.726C30.0167 10.4767 30 10.2347 30 10C30 8.33333 30.5833 6.91667 31.75 5.75C32.9167 4.58333 34.3333 4 36 4C37.6667 4 39.0833 4.58333 40.25 5.75C41.4167 6.91667 42 8.33333 42 10C42 11.6667 41.4167 13.0833 40.25 14.25C39.0833 15.4167 37.6667 16 36 16C35.2333 16 34.5 15.8587 33.8 15.576C33.1 15.2933 32.4667 14.9013 31.9 14.4L17.8 22.6C17.8667 22.8 17.9167 23.0253 17.95 23.276C17.9833 23.5267 18 23.768 18 24C18 24.232 17.9833 24.474 17.95 24.726C17.9167 24.978 17.8667 25.2027 17.8 25.4L31.9 33.6C32.4667 33.1 33.1 32.7087 33.8 32.426C34.5 32.1433 35.2333 32.0013 36 32C37.6667 32 39.0833 32.5833 40.25 33.75C41.4167 34.9167 42 36.3333 42 38C42 39.6667 41.4167 41.0833 40.25 42.25C39.0833 43.4167 37.6667 44 36 44ZM36 12C36.5667 12 37.042 11.8087 37.426 11.426C37.81 11.0433 38.0013 10.568 38 10C37.9987 9.432 37.8067 8.95733 37.424 8.576C37.0413 8.19467 36.5667 8.00267 36 8C35.4333 7.99733 34.9587 8.18933 34.576 8.576C34.1933 8.96267 34.0013 9.43733 34 10C33.9987 10.5627 34.1907 11.038 34.576 11.426C34.9613 11.814 35.436 12.0053 36 12ZM12 26C12.5667 26 13.042 25.808 13.426 25.424C13.81 25.04 14.0013 24.5653 14 24C13.9987 23.4347 13.8067 22.96 13.424 22.576C13.0413 22.192 12.5667 22 12 22C11.4333 22 10.9587 22.192 10.576 22.576C10.1933 22.96 10.0013 23.4347 10 24C9.99867 24.5653 10.1907 25.0407 10.576 25.426C10.9613 25.8113 11.436 26.0027 12 26ZM36 40C36.5667 40 37.042 39.808 37.426 39.424C37.81 39.04 38.0013 38.5653 38 38C37.9987 37.4347 37.8067 36.96 37.424 36.576C37.0413 36.192 36.5667 36 36 36C35.4333 36 34.9587 36.192 34.576 36.576C34.1933 36.96 34.0013 37.4347 34 38C33.9987 38.5653 34.1907 39.0407 34.576 39.426C34.9613 39.8113 35.436 40.0027 36 40Z" fill="white"/>
</g>
</g>
<defs>
<clipPath id="clip0_274_7377">
<rect width="48" height="48" fill="white"/>
</clipPath>
<clipPath id="clip1_274_7377">
<rect width="48" height="48" fill="white"/>
</clipPath>
</defs>
</svg>
