<svg width="48" height="45" viewBox="0 0 48 45" fill="none" xmlns="http://www.w3.org/2000/svg">
<path d="M23.5 16.05C19.9366 16.05 17.05 18.9377 17.05 22.5C17.05 26.0632 19.9377 28.95 23.5 28.95C27.0632 28.95 29.95 26.0623 29.95 22.5C29.95 18.9368 27.0624 16.05 23.5 16.05ZM23.5 11.75C29.4349 11.75 34.25 16.5598 34.25 22.5C34.25 28.4351 29.4403 33.25 23.5 33.25C17.565 33.25 12.75 28.4402 12.75 22.5C12.75 16.565 17.5598 11.75 23.5 11.75ZM37.475 11.2107C37.475 12.6944 36.2693 13.8982 34.7875 13.8982C33.3038 13.8982 32.1 12.6926 32.1 11.2107C32.1 9.72878 33.3055 8.525 34.7875 8.525C36.2674 8.52313 37.475 9.72878 37.475 11.2107ZM23.5 5.3C18.1799 5.3 17.3127 5.31408 14.8383 5.42427C13.1524 5.50341 12.0223 5.73015 10.9723 6.13779C10.0392 6.49968 9.36613 6.93181 8.64896 7.64898C7.92903 8.36891 7.49767 9.0402 7.13725 9.97373C6.72866 11.0261 6.50199 12.1544 6.42427 13.838C6.313 16.2117 6.3 17.0413 6.3 22.5C6.3 27.8202 6.31408 28.6873 6.42424 31.1615C6.50343 32.8467 6.73047 33.9784 7.13712 35.0259C7.49995 35.9603 7.93296 36.635 8.64668 37.3488C9.36944 38.0705 10.0427 38.5033 10.9674 38.8602C12.0302 39.2711 13.1596 39.4981 14.8379 39.5757C17.2117 39.6869 18.0412 39.7 23.5 39.7C28.8202 39.7 29.6873 39.6858 32.1615 39.5757C33.843 39.4968 34.9756 39.2691 36.0259 38.8628C36.9577 38.5009 37.6345 38.0664 38.3488 37.3533C39.0716 36.6294 39.5035 35.9577 39.8609 35.0308C40.2707 33.972 40.4981 32.8411 40.5757 31.1621C40.6869 28.7883 40.7 27.9586 40.7 22.5C40.7 17.1799 40.6858 16.3128 40.5757 13.8384C40.4966 12.1565 40.2689 11.0222 39.8622 9.97234C39.5012 9.04182 39.0675 8.36665 38.3509 7.64898C37.6298 6.92787 36.9603 6.4974 36.0261 6.13725C34.9746 5.72901 33.8445 5.50201 32.1619 5.42429C29.7883 5.31301 28.9587 5.3 23.5 5.3ZM23.5 1C29.3407 1 30.07 1.0215 32.3634 1.129C34.6512 1.23472 36.2119 1.59663 37.5825 2.12875C38.9996 2.67522 40.1965 3.41337 41.3914 4.60841C42.5847 5.80347 43.323 7.00387 43.8713 8.4175C44.4014 9.78634 44.7635 11.3487 44.871 13.6366C44.9731 15.93 45 16.6592 45 22.5C45 28.3409 44.9785 29.07 44.871 31.3634C44.7652 33.6514 44.4014 35.2119 43.8713 36.5825C43.3247 37.9998 42.5847 39.1965 41.3914 40.3917C40.1965 41.5849 38.9942 42.323 37.5825 42.8713C36.2119 43.4017 34.6512 43.7635 32.3634 43.871C30.07 43.9731 29.3407 44 23.5 44C17.6591 44 16.9299 43.9785 14.6366 43.871C12.3486 43.7652 10.7899 43.4017 9.41749 42.8713C8.00206 42.3247 6.80344 41.5849 5.60841 40.3917C4.41337 39.1965 3.677 37.9944 3.12875 36.5825C2.59662 35.2119 2.2365 33.6514 2.129 31.3634C2.02688 29.07 2 28.3409 2 22.5C2 16.6592 2.0215 15.93 2.129 13.6366C2.23469 11.3469 2.59662 9.78812 3.12875 8.4175C3.67519 7.00209 4.41337 5.80347 5.60841 4.60841C6.80344 3.41337 8.00387 2.677 9.41749 2.12875C10.7881 1.59663 12.3469 1.2365 14.6366 1.129C16.9299 1.02687 17.6591 1 23.5 1Z" fill="url(#paint0_linear_274_7517)"/>
<defs>
<linearGradient id="paint0_linear_274_7517" x1="23.1312" y1="4.07916" x2="27.7413" y2="44.1601" gradientUnits="userSpaceOnUse">
<stop stop-color="#47BC10"/>
<stop offset="0.333333" stop-color="#ADFF00"/>
<stop offset="0.666667" stop-color="#ADFF00"/>
<stop offset="1" stop-color="#9AC049"/>
</linearGradient>
</defs>
</svg>
