<svg width="48" height="45" viewBox="0 0 48 45" fill="none" xmlns="http://www.w3.org/2000/svg">
<path d="M39.2118 11.9896C39.0594 11.3939 38.6284 10.9444 38.1348 10.8058C37.2578 10.5612 33 10 24 10C15 10 10.7431 10.5615 9.86253 10.8065C9.37356 10.9425 8.94264 11.3919 8.78824 11.9896C8.57064 12.8385 8 16.3919 8 22C8 27.608 8.57064 31.1616 8.78884 32.0128C8.94056 32.6062 9.37155 33.0556 9.86305 33.1936C10.7431 33.4386 15 34 24 34C33 34 37.2578 33.4388 38.1374 33.1936C38.6264 33.0576 39.0574 32.6082 39.2118 32.0104C39.4294 31.1616 40 27.6 40 22C40 16.4 39.4294 12.8385 39.2118 11.9896ZM43.0864 10.9964C44 14.56 44 22 44 22C44 22 44 29.44 43.0864 33.0036C42.5774 34.9746 41.092 36.5236 39.2092 37.0472C35.7922 38 24 38 24 38C24 38 12.2148 38 8.79078 37.0472C6.90096 36.5164 5.41562 34.9672 4.91352 33.0036C4 29.44 4 22 4 22C4 22 4 14.56 4.91352 10.9964C5.42258 9.02546 6.90794 7.47636 8.79078 6.95272C12.2148 6 24 6 24 6C24 6 35.7922 6 39.2092 6.95272C41.099 7.48364 42.5844 9.03272 43.0864 10.9964ZM20 29V15L32 22L20 29Z" fill="url(#paint0_linear_274_7511)"/>
<defs>
<linearGradient id="paint0_linear_274_7511" x1="23.6569" y1="8.29147" x2="26.4145" y2="38.26" gradientUnits="userSpaceOnUse">
<stop stop-color="#47BC10"/>
<stop offset="0.333333" stop-color="#ADFF00"/>
<stop offset="0.666667" stop-color="#ADFF00"/>
<stop offset="1" stop-color="#9AC049"/>
</linearGradient>
</defs>
</svg>
