<svg width="48" height="48" viewBox="0 0 48 48" fill="none" xmlns="http://www.w3.org/2000/svg">
<g clip-path="url(#clip0_274_7429)">
<path d="M39.5455 26.1117V37.6H41.2727V41H6.72727V37.6H8.45455V26.1117C6.37147 24.7395 5 22.4023 5 19.75C5 18.3439 5.38765 16.9896 6.09374 15.8357L10.7782 7.85C11.0868 7.32402 11.657 7 12.2741 7H35.7259C36.3429 7 36.9133 7.32402 37.2218 7.85L41.8902 15.8089C42.6124 16.9896 43 18.3439 43 19.75C43 22.4023 41.6285 24.7395 39.5455 26.1117ZM36.0909 27.3533C35.8073 27.3842 35.5192 27.4 35.2273 27.4C33.0525 27.4 31.0454 26.5126 29.6136 25.0424C28.1819 26.5126 26.1748 27.4 24 27.4C21.8252 27.4 19.8181 26.5126 18.3864 25.0424C16.9546 26.5126 14.9476 27.4 12.7727 27.4C12.4808 27.4 12.1927 27.3842 11.9091 27.3533V37.6H36.0909V27.3533ZM13.2713 10.4L9.06942 17.5625C8.66888 18.2173 8.45455 18.9661 8.45455 19.75C8.45455 22.0972 10.3879 24 12.7727 24C14.5535 24 16.1317 22.9295 16.7831 21.3301C17.3628 19.9068 19.4099 19.9068 19.9896 21.3301C20.641 22.9295 22.2192 24 24 24C25.7808 24 27.359 22.9295 28.0104 21.3301C28.5901 19.9068 30.6372 19.9068 31.2169 21.3301C31.8682 22.9295 33.4465 24 35.2273 24C37.6121 24 39.5455 22.0972 39.5455 19.75C39.5455 18.9661 39.3311 18.2173 38.9145 17.5357L34.7286 10.4H13.2713Z" fill="white"/>
</g>
<defs>
<clipPath id="clip0_274_7429">
<rect width="48" height="48" fill="white"/>
</clipPath>
</defs>
</svg>
