<svg width="7" height="10" viewBox="0 0 7 10" fill="none" xmlns="http://www.w3.org/2000/svg">
<path fill-rule="evenodd" clip-rule="evenodd" d="M6.62036 5.005C6.67783 5.0142 6.73313 5.03614 6.7831 5.06958C6.83307 5.10301 6.87673 5.14729 6.91157 5.19986C6.94642 5.25243 6.97177 5.31227 6.98618 5.37596C7.00059 5.43964 7.00377 5.50592 6.99554 5.571C6.8849 6.43801 6.52619 7.23995 5.97445 7.85377C5.42271 8.46759 4.70841 8.85937 3.94117 8.969V9.5C3.94117 9.63261 3.89467 9.75979 3.81189 9.85355C3.72911 9.94732 3.61685 10 3.49979 10C3.38272 10 3.27046 9.94732 3.18768 9.85355C3.10491 9.75979 3.0584 9.63261 3.0584 9.5V8.969C2.29127 8.85919 1.57711 8.46733 1.02547 7.85354C0.473824 7.23975 0.115156 6.43791 0.00447389 5.571C-0.0121489 5.43972 0.0179468 5.30633 0.0881403 5.20019C0.158334 5.09404 0.262875 5.02383 0.378767 5.005C0.494658 4.98617 0.612406 5.02026 0.706108 5.09978C0.79981 5.17929 0.861789 5.29772 0.878412 5.429C0.97036 6.14221 1.28583 6.79411 1.76716 7.26551C2.24849 7.73691 2.86351 7.99633 3.49979 7.99633C4.13606 7.99633 4.75108 7.73691 5.23241 7.26551C5.71374 6.79411 6.02921 6.14221 6.12116 5.429C6.12938 5.36399 6.14883 5.30146 6.17839 5.24496C6.20795 5.18847 6.24705 5.13913 6.29345 5.09976C6.33985 5.06038 6.39264 5.03175 6.44881 5.01549C6.50497 4.99923 6.56298 4.99567 6.62036 5.005ZM3.49979 0C4.0851 0 4.64643 0.263392 5.06031 0.732233C5.47419 1.20107 5.7067 1.83696 5.7067 2.5V5C5.7067 5.66304 5.47419 6.29893 5.06031 6.76777C4.64643 7.23661 4.0851 7.5 3.49979 7.5C2.91448 7.5 2.35314 7.23661 1.93926 6.76777C1.52538 6.29893 1.29287 5.66304 1.29287 5V2.5C1.29287 1.83696 1.52538 1.20107 1.93926 0.732233C2.35314 0.263392 2.91448 0 3.49979 0ZM3.49979 1C3.1486 1 2.8118 1.15804 2.56347 1.43934C2.31514 1.72064 2.17564 2.10218 2.17564 2.5V5C2.17564 5.39782 2.31514 5.77936 2.56347 6.06066C2.8118 6.34196 3.1486 6.5 3.49979 6.5C3.85097 6.5 4.18777 6.34196 4.4361 6.06066C4.68443 5.77936 4.82393 5.39782 4.82393 5V2.5C4.82393 2.10218 4.68443 1.72064 4.4361 1.43934C4.18777 1.15804 3.85097 1 3.49979 1Z" fill="white"/>
</svg>
