<svg width="48" height="48" viewBox="0 0 48 48" fill="none" xmlns="http://www.w3.org/2000/svg">
<path d="M40.9989 32.4555V37.5739C41.0009 38.0491 40.9034 38.5194 40.7126 38.9547C40.5219 39.3901 40.2421 39.7809 39.8913 40.1021C39.5405 40.4234 39.1263 40.6679 38.6753 40.8202C38.2243 40.9724 37.7464 41.0289 37.2722 40.9862C32.0119 40.4151 26.959 38.6211 22.5191 35.7484C18.3887 33.1289 14.8867 29.6339 12.2621 25.5116C9.37354 21.0604 7.57564 15.993 7.01388 10.7195C6.97116 10.2477 7.02734 9.77221 7.17884 9.32327C7.33035 8.87432 7.57386 8.46178 7.89387 8.11191C8.21389 7.76204 8.60339 7.4825 9.03758 7.2911C9.47177 7.09969 9.94114 7.00061 10.4158 7.00017H15.5443C16.374 6.99202 17.1783 7.28522 17.8073 7.82513C18.4364 8.36504 18.8472 9.11481 18.9634 9.9347C19.1792 11.5728 19.5807 13.1812 20.16 14.7289C20.39 15.3396 20.4398 16.0032 20.3035 16.6413C20.1671 17.2793 19.8504 17.865 19.3907 18.3288L17.2197 20.4956C19.6532 24.767 23.1969 28.3036 27.4767 30.7323L29.6478 28.5656C30.1126 28.1069 30.6994 27.7907 31.3387 27.6547C31.978 27.5186 32.643 27.5683 33.2549 27.7978C34.8057 28.376 36.4172 28.7766 38.0586 28.9921C38.889 29.109 39.6474 29.5265 40.1895 30.1651C40.7317 30.8036 41.0197 31.6188 40.9989 32.4555Z" stroke="#CCCCCC" stroke-width="4" stroke-linecap="round" stroke-linejoin="round"/>
</svg>
